<svg width="50" height="24" viewBox="0 0 50 24" fill="none" xmlns="http://www.w3.org/2000/svg">
<path d="M39.1012 18.1134H41.6484V8.2312C41.8371 8.0268 42.2144 7.80667 42.7805 7.57082C43.3465 7.33497 43.944 7.21704 44.5729 7.21704C46.2239 7.21704 47.0494 8.25479 47.0494 10.3303V18.1134H49.5966V9.85858C49.5966 6.77679 48.1657 5.23589 45.3041 5.23589C44.1091 5.23589 42.8905 5.6054 41.6484 6.3444V0L39.1012 0.330191V18.1134Z" fill="white"/>
<path d="M2.46228 16.5567C3.43713 17.7832 4.82079 18.3964 6.61326 18.3964C8.42145 18.3964 9.9309 18.019 11.1416 17.2643L10.3161 15.6133C9.30982 16.1479 8.34283 16.4152 7.41515 16.4152C4.93085 16.4152 3.6887 14.8115 3.6887 11.6039C3.6887 10.346 3.98745 9.3004 4.58494 8.46706C5.19815 7.63371 6.13369 7.21704 7.39157 7.21704C8.33497 7.21704 9.34127 7.46076 10.4105 7.94818L11.118 6.22647C9.82869 5.56609 8.41359 5.23589 6.87269 5.23589C5.03305 5.23589 3.59436 5.86483 2.55662 7.1227C1.51887 8.36485 1 9.94505 1 11.8633C1 13.7658 1.48743 15.3303 2.46228 16.5567Z" fill="white"/>
<path fill-rule="evenodd" clip-rule="evenodd" d="M23.6165 15.1181V6.29722C23.1448 6.04565 22.4136 5.8098 21.423 5.58967C20.4482 5.35382 19.5913 5.23589 18.8523 5.23589C17.0284 5.23589 15.5739 5.87269 14.489 7.14629C13.4041 8.40416 12.8617 9.99222 12.8617 11.9105C12.8617 13.813 13.2547 15.3696 14.0409 16.5803C14.8428 17.791 16.0535 18.3964 17.673 18.3964C19.3083 18.3964 20.5425 17.7675 21.3759 16.5096C21.6117 17.6259 22.3429 18.1841 23.5693 18.1841C24.0096 18.1841 24.4262 18.1134 24.8193 17.9719L24.725 16.486C24.2375 16.486 23.9309 16.3995 23.8051 16.2266C23.6794 16.0379 23.6165 15.6684 23.6165 15.1181ZM16.2343 15.4011C15.7783 14.725 15.5504 13.6243 15.5504 12.0992C15.5504 10.574 15.8177 9.37901 16.3522 8.51422C16.9026 7.64944 17.7752 7.21704 18.9702 7.21704C19.7564 7.21704 20.4561 7.31925 21.0693 7.52365V13.1841C21.0693 14.096 20.8177 14.8665 20.3145 15.4954C19.8271 16.1086 19.1432 16.4152 18.2626 16.4152C17.3821 16.4152 16.706 16.0772 16.2343 15.4011Z" fill="white"/>
<path d="M26.9036 17.4766L27.4461 15.5662C28.7354 16.1322 29.8439 16.4152 30.7716 16.4152C32.3754 16.4152 33.1773 15.8728 33.1773 14.7879C33.1773 13.9388 32.4068 13.2312 30.8659 12.6652C30.2684 12.4451 29.8203 12.2721 29.5216 12.1463C29.2228 12.0048 28.8533 11.7926 28.4131 11.5095C27.5483 10.9435 27.1159 10.0944 27.1159 8.96234C27.1159 7.81453 27.5169 6.9183 28.3187 6.27364C29.1364 5.61326 30.237 5.28306 31.6207 5.28306C31.7314 5.28306 31.8409 5.28454 31.9492 5.2875L32.2811 3.62554L33.9067 3.74401L33.5643 5.45838C34.1688 5.57631 34.7238 5.75372 35.2292 5.99062C35.4179 6.06924 35.5201 6.10854 35.5358 6.10854L35.0405 8.01894C33.8927 7.51579 32.8707 7.26421 31.9744 7.26421C30.4021 7.26421 29.6159 7.79881 29.6159 8.868C29.6159 9.18247 29.6945 9.42618 29.8518 9.59914C30.0247 9.75637 30.1584 9.8743 30.2527 9.95292C30.3471 10.0158 30.5043 10.1023 30.7244 10.2124C30.9446 10.3067 31.1018 10.3774 31.1961 10.4246C31.3062 10.4561 31.5027 10.5268 31.7858 10.6369L32.6348 10.9671C32.9336 11.0614 33.2402 11.1951 33.5546 11.368C33.8848 11.541 34.2307 11.7768 34.5924 12.0756C35.3157 12.6731 35.6773 13.585 35.6773 14.8115C35.6773 15.6448 35.4336 16.3366 34.9462 16.8869C34.1357 17.83 32.8142 18.3312 30.9818 18.3904L30.6604 20L29.0348 19.8815L29.35 18.303C28.4798 18.1699 27.6643 17.8944 26.9036 17.4766Z" fill="white"/>
</svg>
